<?xml version="1.0" encoding="UTF-8" standalone="no"?>
<!-- Created with Inkscape (http://www.inkscape.org/) -->

<svg
   xmlns:dc="http://purl.org/dc/elements/1.1/"
   xmlns:cc="http://creativecommons.org/ns#"
   xmlns:rdf="http://www.w3.org/1999/02/22-rdf-syntax-ns#"
   xmlns:svg="http://www.w3.org/2000/svg"
   xmlns="http://www.w3.org/2000/svg"
   xmlns:sodipodi="http://sodipodi.sourceforge.net/DTD/sodipodi-0.dtd"
   xmlns:inkscape="http://www.inkscape.org/namespaces/inkscape"
   width="17.847813mm"
   height="17.850733mm"
   viewBox="0 0 63.240281 63.250628"
   id="svg2"
   version="1.1"
   inkscape:version="0.91 r13725"
   sodipodi:docname="group_not_selected.svg">
  <defs
     id="defs4" />
  <sodipodi:namedview
     id="base"
     pagecolor="#ffffff"
     bordercolor="#666666"
     borderopacity="1.0"
     inkscape:pageopacity="0.0"
     inkscape:pageshadow="2"
     inkscape:zoom="1.4"
     inkscape:cx="-32.11051"
     inkscape:cy="0.67262377"
     inkscape:document-units="px"
     inkscape:current-layer="layer1"
     showgrid="false"
     fit-margin-top="0"
     fit-margin-left="0"
     fit-margin-right="0"
     fit-margin-bottom="0"
     inkscape:window-width="1920"
     inkscape:window-height="1027"
     inkscape:window-x="-8"
     inkscape:window-y="13"
     inkscape:window-maximized="1" />
  <metadata
     id="metadata7">
    <rdf:RDF>
      <cc:Work
         rdf:about="">
        <dc:format>image/svg+xml</dc:format>
        <dc:type
           rdf:resource="http://purl.org/dc/dcmitype/StillImage" />
        <dc:title></dc:title>
      </cc:Work>
    </rdf:RDF>
  </metadata>
  <g
     inkscape:label="Layer 1"
     inkscape:groupmode="layer"
     id="layer1"
     transform="translate(-664.63765,-929.45155)">
    <path
       style="fill:#808080;fill-opacity:0.50196081"
       d="m 705.24259,992.338 c -2.33731,-0.46857 -4.96196,-1.55932 -6.72654,-2.79543 l -1.47046,-1.03005 -5.65705,0 -5.65706,0 0,-10.51524 0,-10.51524 -1.12627,-0.2836 c -1.22357,-0.30811 -2.36871,-1.32569 -2.81191,-2.49872 -0.17624,-0.46644 -0.28044,-3.79107 -0.28044,-8.94725 0,-7.63674 0.0361,-8.27963 0.52172,-9.28273 1.0257,-2.11881 0.98124,-2.11054 11.82759,-2.19916 9.16905,-0.0749 9.62827,-0.0554 10.68414,0.45581 1.85786,0.89937 2.13241,1.6541 2.23653,6.14814 l 0.0901,3.88905 2.08514,0 2.08512,0 0,-4.59695 c 0,-2.52833 -0.11576,-4.9013 -0.25713,-5.27327 l -0.25715,-0.67633 4.91985,0 c 4.36336,0 5.04174,0.0591 5.99757,0.52173 2.04443,0.98969 2.10331,1.24479 2.25272,9.76116 l 0.13179,7.5144 1.11191,1.67538 c 2.56453,3.8641 3.50832,8.80527 2.59429,13.58238 -1.9694,10.29321 -12.06639,17.11644 -22.29448,15.06592 z m 6.64452,-4.37837 c 6.50794,-1.34719 11.54826,-7.55023 11.54826,-14.21227 0,-6.54946 -4.78254,-12.60631 -11.13708,-14.10453 -4.98902,-1.17629 -9.85773,0.23461 -13.54185,3.92428 -5.79145,5.80016 -5.79145,14.57571 0,20.35316 3.57074,3.5621 8.34352,5.03033 13.13067,4.03936 z m -9.28137,-8.01639 -1.96449,-1.97769 2.09674,-2.10909 2.09672,-2.1091 -2.09896,-2.11135 -2.09895,-2.11134 2.03719,-2.0372 2.0372,-2.03719 2.11134,2.09895 2.11134,2.09896 2.11135,-2.09896 2.11134,-2.09895 2.03721,2.03719 2.03719,2.0372 -2.09896,2.11134 -2.09896,2.11135 2.09896,2.11135 2.09896,2.11133 -2.03719,2.03721 -2.03721,2.03719 -2.11134,-2.09897 -2.11135,-2.09894 -2.04921,2.0372 c -1.12708,1.12046 -2.1089,2.0372 -2.18184,2.0372 -0.0729,0 -1.01662,-0.88996 -2.09708,-1.97769 z m -33.74874,-1.94596 0,-10.51524 -1.12626,-0.2836 c -1.22357,-0.30811 -2.36871,-1.32569 -2.81192,-2.49872 -0.17623,-0.46644 -0.28043,-3.79107 -0.28043,-8.94725 0,-11.70079 -0.24072,-11.35409 7.97683,-11.48932 l 5.20835,-0.0857 -0.26467,0.69612 c -0.16233,0.42714 -0.26466,5.13131 -0.26466,12.17441 0,9.99478 0.0547,11.59362 0.42357,12.37086 0.46833,0.98695 1.69924,1.86598 2.96839,2.1198 l 0.82666,0.16537 0,8.40428 0,8.40429 -6.32793,0 -6.32793,0 0,-10.51525 z m 6.32793,-36.21851 c -1.30595,-0.43393 -3.50408,-2.71896 -3.89797,-4.05208 -0.73044,-2.47221 -0.21547,-4.44292 1.64789,-6.30628 2.04708,-2.04707 4.38582,-2.50358 6.87885,-1.34268 4.01577,1.86996 4.99594,6.77948 1.99863,10.01075 -1.50907,1.62686 -4.5127,2.39293 -6.6274,1.69029 z m 16.87447,-0.0152 c -1.29412,-0.40791 -3.50115,-2.69329 -3.89797,-4.03634 -0.73044,-2.47221 -0.21546,-4.44291 1.6479,-6.30628 2.04707,-2.04707 4.38581,-2.50358 6.87884,-1.34268 3.26633,1.52098 4.65123,5.09499 3.18008,8.20688 -1.4375,3.04071 -4.6531,4.47308 -7.80885,3.4784 z m 17.4001,0.0984 c -3.4482,-1.0489 -5.40358,-4.49033 -4.46458,-7.85753 0.45039,-1.61511 2.53876,-3.76964 4.10137,-4.23133 4.12549,-1.21891 8.28302,1.88191 8.27224,6.1697 -0.003,1.26453 -0.99444,3.42253 -2.00747,4.37023 -1.57769,1.47601 -4.02752,2.11898 -5.90156,1.54893 z"
       id="path4147"
       inkscape:connector-curvature="0" />
  </g>
</svg>
